<svg width="24" height="24" viewBox="0 0 24 24" fill="none" xmlns="http://www.w3.org/2000/svg">
<path fill-rule="evenodd" clip-rule="evenodd" d="M6.04167 4.37522C6.04167 3.79969 5.57533 3.33334 5.00022 3.33334C4.42469 3.33334 3.95834 3.79969 3.95834 4.37522C3.95834 4.95033 4.42469 5.41668 5.00022 5.41668C5.57533 5.41668 6.04167 4.95033 6.04167 4.37522Z" stroke="#B4BCC2" stroke-width="0.5" stroke-linecap="round" stroke-linejoin="round"/>
<path fill-rule="evenodd" clip-rule="evenodd" d="M4.9998 8.75C4.50043 8.75 1.875 6.62432 1.875 4.40137C1.875 2.6611 3.27379 1.25 4.9998 1.25C6.7258 1.25 8.125 2.6611 8.125 4.40137C8.125 6.62432 5.49916 8.75 4.9998 8.75Z" stroke="#B4BCC2" stroke-width="1.5" stroke-linecap="round" stroke-linejoin="round"/>
<path fill-rule="evenodd" clip-rule="evenodd" d="M20.0417 18.3752C20.0417 17.7997 19.5753 17.3333 19.0002 17.3333C18.4247 17.3333 17.9583 17.7997 17.9583 18.3752C17.9583 18.9503 18.4247 19.4167 19.0002 19.4167C19.5753 19.4167 20.0417 18.9503 20.0417 18.3752Z" stroke="#B4BCC2" stroke-width="0.5" stroke-linecap="round" stroke-linejoin="round"/>
<path fill-rule="evenodd" clip-rule="evenodd" d="M18.9998 22.75C18.5004 22.75 15.875 20.6243 15.875 18.4014C15.875 16.6611 17.2738 15.25 18.9998 15.25C20.7258 15.25 22.125 16.6611 22.125 18.4014C22.125 20.6243 19.4992 22.75 18.9998 22.75Z" stroke="#B4BCC2" stroke-width="1.5" stroke-linecap="round" stroke-linejoin="round"/>
<path d="M9 8.5H10.8967C14.3187 8.5 15.7072 12.9049 12.9038 14.8673V14.8673C12.3155 15.2791 11.6148 15.5 10.8967 15.5H7.25C5.45507 15.5 4 16.9551 4 18.75V18.75C4 20.5449 5.45507 22 7.25 22H15" stroke="#B4BCC2" stroke-width="1.5" stroke-linecap="round"/>
</svg>
